<svg xmlns="http://www.w3.org/2000/svg" width="1200" height="330" viewBox="0 0 1200 330" role="img" aria-labelledby="title desc">
  <title id="title">Capability topology</title>
  <desc id="desc">Five engineering capabilities converge on reliable software through restrained ink-like lines.</desc>
  <defs>
    <pattern id="paper" width="36" height="36" patternUnits="userSpaceOnUse">
      <path d="M0 35.5H36M35.5 0V36" fill="none" stroke="#2A323A" stroke-opacity=".11" stroke-width=".6"/>
      <circle cx="6" cy="8" r=".65" fill="#8E99A3" fill-opacity=".08"/>
    </pattern>
  </defs>
  <rect width="1200" height="330" rx="18" fill="#0B0E12"/>
  <rect width="1200" height="330" rx="18" fill="url(#paper)"/>
  <rect x=".5" y=".5" width="1199" height="329" rx="17.5" fill="none" stroke="#2A323A"/>
  <g fill="none" stroke="#2A323A" stroke-width="1.15">
    <path d="M295 92C401 92 442 144 518 154"/><path d="M295 238C400 238 439 190 518 176"/>
    <path d="M905 92C798 92 756 144 682 154"/><path d="M905 238C798 238 757 190 682 176"/>
    <path d="M600 76V132" stroke="#C6A96A" stroke-opacity=".7"/>
  </g>
  <g font-family="IBM Plex Sans, Inter, Segoe UI, Arial, sans-serif">
    <g transform="translate(56 57)"><text y="14" fill="#E8ECEF" font-size="13" font-weight="650" letter-spacing="1.2">CROSS-LANGUAGE</text><line y1="28" x2="184" y2="28" stroke="#2A323A"/><text y="50" fill="#8E99A3" font-size="12">C# · C++ · Java · Python</text><text y="69" fill="#8E99A3" font-size="10">Native bridges · SDK contracts</text></g>
    <g transform="translate(56 203)"><text y="14" fill="#E8ECEF" font-size="13" font-weight="650" letter-spacing="1.2">CROSS-PLATFORM</text><line y1="28" x2="184" y2="28" stroke="#2A323A"/><text y="50" fill="#8E99A3" font-size="12">Windows · Android · iOS · WebGL</text><text y="69" fill="#8E99A3" font-size="10">Compatibility · Delivery constraints</text></g>
    <g transform="translate(944 57)"><text y="14" fill="#E8ECEF" font-size="13" font-weight="650" letter-spacing="1.2">DELIVERY SYSTEMS</text><line y1="28" x2="184" y2="28" stroke="#2A323A"/><text y="50" fill="#8E99A3" font-size="12">CI/CD · Testing · Diagnostics</text><text y="69" fill="#8E99A3" font-size="10">Observability · Verifiable completion</text></g>
    <g transform="translate(944 203)"><text y="14" fill="#E8ECEF" font-size="13" font-weight="650" letter-spacing="1.2">AGENT WORKFLOWS</text><line y1="28" x2="184" y2="28" stroke="#2A323A"/><text y="50" fill="#8E99A3" font-size="12">Responsibilities · Tools · Review</text><text y="69" fill="#8E99A3" font-size="10">Governance · Durable context</text></g>
    <g transform="translate(477 25)"><text x="123" y="14" text-anchor="middle" fill="#E8ECEF" font-size="13" font-weight="650" letter-spacing="1.2">ENGINE &amp; RUNTIME</text><line y1="28" x2="246" y2="28" stroke="#C6A96A"/><text x="123" y="50" text-anchor="middle" fill="#8E99A3" font-size="11">Unity · Unreal · Cocos · Native · Web</text></g>
  </g>
  <g transform="translate(518 132)" font-family="IBM Plex Sans, Inter, Segoe UI, Arial, sans-serif">
    <rect width="164" height="66" rx="33" fill="#11161C" stroke="#7FA8B8" stroke-width="1.2"/>
    <circle cx="18" cy="33" r="3.5" fill="#B86A4A"/>
    <text x="92" y="30" text-anchor="middle" fill="#E8ECEF" font-size="13" font-weight="650" letter-spacing="1.2">RELIABLE SOFTWARE</text>
    <text x="92" y="48" text-anchor="middle" fill="#8E99A3" font-family="IBM Plex Mono, Consolas, monospace" font-size="8.5">UNDERSTAND · TEST · REVIEW</text>
  </g>
  <text x="600" y="303" text-anchor="middle" fill="#8E99A3" font-family="IBM Plex Mono, Consolas, monospace" font-size="9" letter-spacing="1.5">BOUNDARIES BECOME EXPLICIT INTERFACES</text>
</svg>